<?xml version="1.0" encoding="UTF-8" standalone="no"?>
<!-- Created with Inkscape (http://www.inkscape.org/) -->

<svg
   width="27.516666mm"
   height="27.51667mm"
   viewBox="0 0 27.516666 27.51667"
   version="1.1"
   id="svg1"
   xmlns:xlink="http://www.w3.org/1999/xlink"
   xmlns="http://www.w3.org/2000/svg"
   xmlns:svg="http://www.w3.org/2000/svg">
  <defs
     id="defs1">
    <linearGradient
       xlink:href="#linearGradient212"
       id="linearGradient193"
       gradientUnits="userSpaceOnUse"
       x1="-166.99747"
       y1="83.786522"
       x2="-175.42033"
       y2="101.38656" />
    <linearGradient
       id="linearGradient212">
      <stop
         style="stop-color:#ffffff;stop-opacity:1;"
         offset="0"
         id="stop211" />
      <stop
         style="stop-color:#fbbeca;stop-opacity:1;"
         offset="0.13832529"
         id="stop213" />
      <stop
         style="stop-color:#d77feb;stop-opacity:1;"
         offset="1"
         id="stop212" />
    </linearGradient>
    <linearGradient
       xlink:href="#linearGradient203"
       id="linearGradient205"
       x1="-170.8152"
       y1="98.296501"
       x2="-143.39699"
       y2="70.4561"
       gradientUnits="userSpaceOnUse" />
    <linearGradient
       id="linearGradient203">
      <stop
         style="stop-color:#fc89ff;stop-opacity:1;"
         offset="0"
         id="stop204" />
      <stop
         style="stop-color:#9989ff;stop-opacity:1;"
         offset="0.15970773"
         id="stop206" />
      <stop
         style="stop-color:#6fff61;stop-opacity:1;"
         offset="0.36164209"
         id="stop207" />
      <stop
         style="stop-color:#fff763;stop-opacity:1;"
         offset="0.50170439"
         id="stop208" />
      <stop
         style="stop-color:#ffbb57;stop-opacity:1;"
         offset="0.66858852"
         id="stop209" />
      <stop
         style="stop-color:#ff7272;stop-opacity:1;"
         offset="0.81703418"
         id="stop210" />
    </linearGradient>
  </defs>
  <g
     id="layer1"
     transform="translate(-48.15417,-83.794056)">
    <g
       id="g178"
       transform="matrix(0.81250001,0,0,0.81250001,191.33099,27.53267)"
       style="display:inline;enable-background:new">
      <path
         id="path175"
         style="fill:url(#linearGradient193);stroke:#000000;stroke-width:0.521026;stroke-linecap:square;stroke-linejoin:round;paint-order:stroke fill markers"
         d="m -172.04942,69.505295 h 25.53026 c 2.16486,0 3.90769,1.742831 3.90769,3.907692 v 25.530257 c 0,2.164866 -1.74283,3.907696 -3.90769,3.907696 h -25.53026 c -2.16486,0 -3.90769,-1.74283 -3.90769,-3.907696 V 73.412987 c 0,-2.164861 1.74283,-3.907692 3.90769,-3.907692 z" />
      <path
         id="path176"
         style="fill:url(#linearGradient205);fill-opacity:1;stroke:#000000;stroke-width:0.455898;stroke-linecap:square;stroke-linejoin:round;paint-order:stroke fill markers"
         d="m -170.45377,71.589401 h 22.33897 c 1.89426,0 3.41923,1.524977 3.41923,3.419231 v 22.338974 c 0,1.894253 -1.52497,3.419234 -3.41923,3.419234 h -22.33897 c -1.89425,0 -3.41923,-1.524981 -3.41923,-3.419234 V 75.008632 c 0,-1.894254 1.52498,-3.419231 3.41923,-3.419231 z" />
      <path
         style="font-size:23.2485px;font-family:'jf-openhuninn-2.0';-inkscape-font-specification:'jf-openhuninn-2.0';stroke:#000000;stroke-width:0.396875;stroke-linecap:square;stroke-linejoin:round;paint-order:stroke fill markers"
         d="m -167.17679,92.411932 q -1.77088,0 -1.77088,-1.770882 V 79.153021 q 0,-1.748178 1.72547,-1.748178 h 0.81733 v -2.066029 h -2.45199 q -0.93085,0 -0.93085,-0.794627 0,-0.794626 0.93085,-0.794626 h 8.55926 q 0.93085,0 0.93085,0.794626 0,0.794627 -0.93085,0.794627 h -2.42928 v 2.066029 h 0.88544 q 1.77088,0 1.77088,1.748178 V 90.64105 q 0,0.862737 -0.45407,1.316809 -0.45408,0.454073 -1.31681,0.454073 z m -0.22704,-2.224954 q 0,0.635701 0.59029,0.635701 h 4.56343 q 0.29515,0 0.45407,-0.158926 0.18163,-0.181628 0.18163,-0.476775 v -1.975215 h -5.78942 z m 5.78942,-3.541764 v -1.8844 q -1.79358,0 -2.08873,-0.158925 -0.36326,-0.227037 -0.36326,-0.953552 v -4.654241 h -1.02166 v 1.702771 q 0,1.362217 -0.18163,2.20225 -0.18163,0.840034 -0.613,1.248699 -0.54488,0.771923 -1.52114,1.203292 v 1.294106 z m -5.78942,-2.724434 q 0.70381,-0.658405 0.88544,-1.566549 0.18163,-0.908145 0.18163,-2.63362 v -0.726515 h -0.52218 q -0.54489,0 -0.54489,0.544887 z m 3.31473,-6.515937 v -2.066029 h -0.95355 v 2.066029 z m 1.2941,5.426164 q 0,0.204332 0.11352,0.340554 0.11352,0.136222 0.31785,0.136222 h 0.74922 v -3.7688 q 0,-0.544887 -0.59029,-0.544887 h -0.5903 z m 3.1331,-0.567591 q 0,-0.794626 0.97626,-0.794626 h 3.58717 v -3.587171 h -2.22495 q -0.79463,2.293065 -1.45304,2.293065 -0.40866,0 -0.59029,-0.181629 -0.18163,-0.204333 -0.18163,-0.612998 0,-0.136221 0.18163,-0.56759 0.18163,-0.454072 0.24974,-0.612998 0.59029,-1.498438 0.97626,-3.26932 0.24974,-1.06707 0.88544,-1.06707 0.38596,0 0.56759,0.181629 0.20433,0.181629 0.20433,0.590294 0,0.385961 -0.38596,1.680067 h 1.77088 v -2.679026 q 0,-0.522183 0.20433,-0.771923 0.20433,-0.24974 0.6357,-0.24974 0.81733,0 0.81733,1.021663 v 2.679026 h 2.74714 q 0.95355,0 0.95355,0.771923 0,0.794627 -0.95355,0.794627 h -2.74714 v 3.587171 h 3.38284 q 0.97626,0 0.97626,0.794626 0,0.771923 -0.97626,0.771923 h -8.62737 q -0.97626,0 -0.97626,-0.771923 z m 1.15789,4.245576 q 0,-1.021663 0.45407,-1.475735 0.45407,-0.454072 1.43033,-0.385961 h 4.72235 q 1.06707,0 1.54384,0.454072 0.47678,0.454072 0.40867,1.475735 v 4.01854 q 0,1.044366 -0.47678,1.521142 -0.45407,0.476776 -1.47573,0.408665 h -4.72235 q -1.02167,0 -1.47574,-0.454072 -0.45407,-0.431369 -0.40866,-1.407625 z m 1.65736,3.677986 q 0,0.726515 0.74922,0.726515 h 3.58717 q 0.43137,0 0.65841,-0.181629 0.22703,-0.204332 0.22703,-0.56759 v -3.133099 q 0,-0.363258 -0.22703,-0.56759 -0.22704,-0.204333 -0.65841,-0.204333 h -3.58717 q -0.74922,0 -0.74922,0.74922 z"
         id="path177"
         aria-label="酷" />
      <path
         style="font-size:6.40388px;font-family:'jf-openhuninn-2.0';-inkscape-font-specification:'jf-openhuninn-2.0';stroke:#000000;stroke-width:0.3175;stroke-linecap:square;stroke-linejoin:round;paint-order:stroke fill markers"
         d="m -165.80144,99.149243 q -0.37522,0 -0.37522,-0.312689 0,-0.150091 0.0938,-0.218883 0.0938,-0.06879 0.31895,-0.07505 0.43776,-0.01251 0.63788,-0.112569 0.20638,-0.10006 0.29393,-0.306435 0.20638,-0.575349 0.36898,-2.157558 0.006,-0.09381 -0.0438,-0.143837 -0.0438,-0.05628 -0.13758,-0.05628 h -2.83922 q -0.21263,0 -0.33146,-0.09381 -0.11882,-0.10006 -0.11882,-0.28142 0,-0.100061 0.0375,-0.218883 0.0875,-0.275167 0.14383,-0.425258 0.11257,-0.337704 0.18136,-0.569094 0.0938,-0.325197 0.30644,-0.325197 0.025,0 0.0875,0.01251 0.21888,0.05628 0.21888,0.268913 0,0.07505 -0.0313,0.187614 -0.12507,0.41275 -0.25015,0.706678 -0.0188,0.04378 -0.0188,0.08755 0,0.13133 0.1626,0.13133 h 2.79544 q 0.25016,0 0.37523,0.137583 0.12508,0.137583 0.11257,0.387735 -0.0625,0.906799 -0.19387,1.594716 -0.13133,0.681663 -0.30018,1.100667 -0.27517,0.681663 -1.49466,0.681663 z m 4.34639,-0.02501 q -0.0938,0.03127 -0.16885,0.03127 -0.20013,0 -0.27517,-0.187614 -0.0125,-0.05003 -0.0125,-0.07505 0,-0.09381 0.0625,-0.168853 0.0688,-0.0813 0.18136,-0.118822 0.61912,-0.212628 1.0694,-0.46278 0.45027,-0.250152 0.86927,-0.619125 -0.35646,-0.287674 -0.38148,-0.306436 -0.36272,-0.28142 -0.63163,-0.506557 -0.15634,-0.137583 -0.15634,-0.262659 0,-0.09381 0.0625,-0.162598 0.0563,-0.07505 0.16886,-0.07505 0.13758,0 0.28142,0.106315 0.3377,0.237644 0.56909,0.419003 0.23139,0.175107 0.51281,0.400243 0.55034,-0.575349 0.86302,-1.23825 0.025,-0.05003 0.025,-0.09381 0,-0.05628 -0.0438,-0.08755 -0.0438,-0.03752 -0.12507,-0.03752 h -2.29514 q -0.21263,0 -0.33771,-0.100061 -0.11882,-0.10006 -0.11882,-0.268912 0,-0.100061 0.0375,-0.200122 l 0.3252,-0.994352 q 0.0938,-0.306436 0.31269,-0.306436 0.13758,0 0.21263,0.07505 0.075,0.07504 0.075,0.200121 0,0.06254 -0.0188,0.137583 -0.10006,0.368974 -0.23764,0.719186 -0.0188,0.04378 -0.0188,0.0813 0,0.06254 0.0438,0.100061 0.0438,0.03752 0.12508,0.03752 h 2.35768 q 0.21263,0 0.33145,0.10006 0.11882,0.09381 0.11882,0.256406 0,0.106314 -0.0438,0.218882 -0.40024,0.994353 -1.13819,1.769823 0.23139,0.181359 0.59411,0.506556 0.36272,0.325197 0.53158,0.525319 0.13133,0.150091 0.13133,0.275166 0,0.100061 -0.10632,0.193868 -0.10631,0.08755 -0.21263,0.08755 -0.15009,0 -0.28142,-0.150091 -0.28767,-0.318943 -0.50655,-0.512811 -0.21263,-0.200121 -0.59411,-0.506557 -0.88804,0.762963 -2.15756,1.200728 z m 6.34134,-0.0813 q -0.13758,0 -0.21263,-0.09381 -0.075,-0.08755 -0.075,-0.256406 V 94.72156 q 0,-0.243897 0.12507,-0.368973 0.13133,-0.13133 0.37523,-0.13133 h 3.60844 q 0.24389,0 0.36897,0.13133 0.13133,0.125076 0.13133,0.368973 v 3.971156 q 0,0.168853 -0.0813,0.256406 -0.0751,0.09381 -0.21888,0.09381 -0.15009,0 -0.23139,-0.09381 -0.075,-0.08755 -0.075,-0.256406 v -3.739765 q 0,-0.08755 -0.05,-0.137584 -0.05,-0.05003 -0.13758,-0.05003 h -3.05185 q -0.0875,0 -0.13759,0.05003 -0.05,0.05003 -0.05,0.137584 v 3.739765 q 0,0.168853 -0.075,0.256406 -0.0751,0.09381 -0.21263,0.09381 z"
         id="path178"
         aria-label="ㄅㄆㄇ" />
    </g>
  </g>
</svg>
