<?xml version="1.0" encoding="UTF-8" standalone="no"?>
<!-- Created with Inkscape (http://www.inkscape.org/) -->

<svg
   width="28.585485mm"
   height="26.720963mm"
   viewBox="0 0 28.585485 26.720963"
   version="1.1"
   id="svg1"
   xmlns:xlink="http://www.w3.org/1999/xlink"
   xmlns="http://www.w3.org/2000/svg"
   xmlns:svg="http://www.w3.org/2000/svg">
  <defs
     id="defs1">
    <linearGradient
       xlink:href="#linearGradient69"
       id="linearGradient89"
       gradientUnits="userSpaceOnUse"
       gradientTransform="matrix(-0.10104216,0,0,-0.10104216,17.984801,205.19661)"
       x1="-372.2529"
       y1="-331.95956"
       x2="-12.556027"
       y2="-513.66284" />
    <linearGradient
       id="linearGradient69">
      <stop
         style="stop-color:#cbcbcb;stop-opacity:1;"
         offset="0"
         id="stop69" />
      <stop
         style="stop-color:#000000;stop-opacity:0;"
         offset="1"
         id="stop70" />
    </linearGradient>
    <linearGradient
       xlink:href="#linearGradient69"
       id="linearGradient90"
       gradientUnits="userSpaceOnUse"
       gradientTransform="matrix(0.10104216,0,0,-0.10104216,58.692682,205.19661)"
       x1="-372.2529"
       y1="-331.95956"
       x2="-12.556027"
       y2="-513.66284" />
    <linearGradient
       xlink:href="#linearGradient81"
       id="linearGradient87"
       gradientUnits="userSpaceOnUse"
       gradientTransform="matrix(0.10104216,0,0,-0.10104216,53.750797,198.75024)"
       x1="-371.06696"
       y1="-180.11514"
       x2="10.70285"
       y2="-179.31694" />
    <linearGradient
       id="linearGradient81">
      <stop
         style="stop-color:#787878;stop-opacity:0.8739984;"
         offset="0"
         id="stop80" />
      <stop
         style="stop-color:#787878;stop-opacity:0;"
         offset="0.25495407"
         id="stop81" />
    </linearGradient>
    <linearGradient
       xlink:href="#linearGradient79"
       id="linearGradient88"
       gradientUnits="userSpaceOnUse"
       gradientTransform="matrix(0.10104216,0,0,-0.10104216,53.750797,198.75024)"
       x1="18.01963"
       y1="-417.64713"
       x2="22.551645"
       y2="-246.05228" />
    <linearGradient
       id="linearGradient79">
      <stop
         style="stop-color:#787878;stop-opacity:1;"
         offset="0"
         id="stop78" />
      <stop
         style="stop-color:#787878;stop-opacity:0;"
         offset="0.40910843"
         id="stop79" />
    </linearGradient>
    <linearGradient
       xlink:href="#linearGradient69"
       id="linearGradient85"
       gradientUnits="userSpaceOnUse"
       gradientTransform="matrix(-0.10104216,0,0,-0.10104216,61.331848,205.09557)"
       x1="-372.2529"
       y1="-331.95956"
       x2="-12.556027"
       y2="-513.66284" />
    <linearGradient
       xlink:href="#linearGradient91"
       id="linearGradient86"
       gradientUnits="userSpaceOnUse"
       gradientTransform="matrix(0.10104216,0,0,-0.10104216,102.03973,205.09557)"
       x1="-372.2529"
       y1="-331.95956"
       x2="-12.556027"
       y2="-513.66284" />
    <linearGradient
       id="linearGradient91">
      <stop
         style="stop-color:#b8b8b8;stop-opacity:1;"
         offset="0"
         id="stop90" />
      <stop
         style="stop-color:#000000;stop-opacity:0;"
         offset="1"
         id="stop91" />
    </linearGradient>
    <linearGradient
       xlink:href="#linearGradient81"
       id="linearGradient83"
       gradientUnits="userSpaceOnUse"
       gradientTransform="matrix(0.10104216,0,0,-0.10104216,97.097896,198.6492)"
       x1="-371.06696"
       y1="-180.11514"
       x2="10.70285"
       y2="-179.31694" />
    <linearGradient
       xlink:href="#linearGradient79"
       id="linearGradient84"
       gradientUnits="userSpaceOnUse"
       gradientTransform="matrix(0.10104216,0,0,-0.10104216,97.097896,198.6492)"
       x1="18.01963"
       y1="-417.64713"
       x2="22.551645"
       y2="-246.05228" />
    <linearGradient
       xlink:href="#linearGradient69"
       id="linearGradient77"
       gradientUnits="userSpaceOnUse"
       gradientTransform="matrix(-0.10104216,0,0,-0.10104216,25.866088,247.94374)"
       x1="-372.2529"
       y1="-331.95956"
       x2="-12.556027"
       y2="-513.66284" />
    <linearGradient
       xlink:href="#linearGradient69"
       id="linearGradient78"
       gradientUnits="userSpaceOnUse"
       x1="-372.2529"
       y1="-331.95956"
       x2="-12.556027"
       y2="-513.66284"
       gradientTransform="matrix(0.10104216,0,0,-0.10104216,66.573969,247.94374)" />
    <linearGradient
       xlink:href="#linearGradient81"
       id="linearGradient44-5"
       x1="-371.06696"
       y1="-180.11514"
       x2="10.70285"
       y2="-179.31694"
       gradientUnits="userSpaceOnUse"
       gradientTransform="matrix(0.10104216,0,0,-0.10104216,61.632074,241.49734)" />
    <linearGradient
       xlink:href="#linearGradient79"
       id="linearGradient45-1"
       gradientUnits="userSpaceOnUse"
       x1="18.01963"
       y1="-417.64713"
       x2="22.551645"
       y2="-246.05228"
       gradientTransform="matrix(0.10104216,0,0,-0.10104216,61.632074,241.49734)" />
    <linearGradient
       xlink:href="#linearGradient69"
       id="linearGradient76"
       gradientUnits="userSpaceOnUse"
       x1="-372.2529"
       y1="-331.95956"
       x2="-12.556027"
       y2="-513.66284"
       gradientTransform="matrix(-0.10104216,0,0,-0.10104216,69.213177,247.84268)" />
    <linearGradient
       xlink:href="#linearGradient69"
       id="linearGradient70"
       x1="-372.2529"
       y1="-331.95956"
       x2="-12.556027"
       y2="-513.66284"
       gradientUnits="userSpaceOnUse" />
    <linearGradient
       xlink:href="#linearGradient42"
       id="linearGradient44"
       x1="-322.25201"
       y1="-185.382"
       x2="20"
       y2="-185.382"
       gradientUnits="userSpaceOnUse" />
    <linearGradient
       id="linearGradient42">
      <stop
         style="stop-color:#e5a50a;stop-opacity:1;"
         offset="0"
         id="stop43" />
      <stop
         style="stop-color:#e5a50a;stop-opacity:0;"
         offset="0.18374012"
         id="stop44" />
    </linearGradient>
    <linearGradient
       xlink:href="#linearGradient46"
       id="linearGradient45"
       gradientUnits="userSpaceOnUse"
       x1="18.909435"
       y1="-363.76816"
       x2="20"
       y2="-185.382" />
    <linearGradient
       id="linearGradient46">
      <stop
         style="stop-color:#e5a50a;stop-opacity:1"
         offset="0"
         id="stop46" />
      <stop
         style="stop-color:#e5a50a;stop-opacity:0"
         offset="0.2679441"
         id="stop45" />
    </linearGradient>
    <clipPath
       clipPathUnits="userSpaceOnUse"
       id="clipPath80">
      <path
         d="M 0,2000 H 2000 V 0 H 0 Z"
         transform="translate(-768.33219,-1367.8611)"
         id="path80" />
    </clipPath>
    <clipPath
       clipPathUnits="userSpaceOnUse"
       id="clipPath87">
      <path
         d="M 0,2000 H 2000 V 0 H 0 Z"
         transform="matrix(1.3333333,0,0,-1.3333333,0,2666.6667)"
         id="path87" />
    </clipPath>
    <mask
       maskUnits="userSpaceOnUse"
       x="0"
       y="0"
       width="1"
       height="1"
       id="mask80">
      <path
         id="path81"
         d="M 612.709,1428.988 H 772.012 V 1235.443 H 612.709 Z"
         style="fill:#000000;fill-opacity:1;fill-rule:nonzero;stroke:none"
         transform="matrix(1.3333333,0,0,-1.3333333,0,2666.6667)"
         clip-path="url(#clipPath82)" />
      <g
         id="g83"
         clip-path="url(#clipPath84)">
        <image
           width="1"
           height="1"
           style="image-rendering:optimizeSpeed"
           preserveAspectRatio="none"
           xlink:href="../../../%E3%84%85%E3%84%86%E3%84%87%E9%85%B7icon_img10.png"
           transform="scale(2666.6667)"
           clip-path="url(#clipPath83)"
           id="image83" />
      </g>
    </mask>
    <clipPath
       clipPathUnits="userSpaceOnUse"
       id="clipPath82">
      <path
         d="M 612.988,1428.99 H 772.012 V 1235.65 H 612.988 Z"
         transform="translate(0,2.5000001e-5)"
         id="path82" />
    </clipPath>
    <clipPath
       clipPathUnits="userSpaceOnUse"
       id="clipPath84">
      <path
         d="M 612.988,1428.99 H 772.012 V 1235.65 H 612.988 Z"
         transform="matrix(1.3333333,0,0,-1.3333333,0,2666.6667)"
         id="path84" />
    </clipPath>
    <clipPath
       clipPathUnits="userSpaceOnUse"
       id="clipPath83">
      <path
         d="M 612.709,1428.99 H 772.012 V 1235.44 H 612.709 Z"
         transform="matrix(4.9999999e-4,0,0,-4.9999999e-4,0,0.99999999)"
         id="path83" />
    </clipPath>
    <clipPath
       clipPathUnits="userSpaceOnUse"
       id="clipPath85">
      <path
         d="M 612.988,1428.99 H 772.012 V 1235.65 H 612.988 Z"
         transform="translate(-768.33219,-1369.4998)"
         id="path85" />
    </clipPath>
    <clipPath
       clipPathUnits="userSpaceOnUse"
       id="clipPath89">
      <path
         d="M 0,2000 H 2000 V 0 H 0 Z"
         transform="translate(-1148.5869,-1313.3499)"
         id="path89" />
    </clipPath>
    <clipPath
       clipPathUnits="userSpaceOnUse"
       id="clipPath96">
      <path
         d="M 0,2000 H 2000 V 0 H 0 Z"
         transform="matrix(1.3333333,0,0,-1.3333333,0,2666.6667)"
         id="path96" />
    </clipPath>
    <mask
       maskUnits="userSpaceOnUse"
       x="0"
       y="0"
       width="1"
       height="1"
       id="mask89">
      <path
         id="path90"
         d="m 1042.012,1430.988 h 147 v -193 h -147 z"
         style="fill:#000000;fill-opacity:1;fill-rule:nonzero;stroke:none"
         transform="matrix(1.3333333,0,0,-1.3333333,0,2666.6667)"
         clip-path="url(#clipPath91)" />
      <g
         id="g92"
         clip-path="url(#clipPath93)">
        <image
           width="1"
           height="1"
           style="image-rendering:optimizeSpeed"
           preserveAspectRatio="none"
           xlink:href="../../../%E3%84%85%E3%84%86%E3%84%87%E9%85%B7icon_img11.png"
           transform="scale(2666.6667)"
           clip-path="url(#clipPath92)"
           id="image92" />
      </g>
    </mask>
    <clipPath
       clipPathUnits="userSpaceOnUse"
       id="clipPath91">
      <path
         d="m 1042.01,1430.99 h 147 v -193 h -147 z"
         transform="translate(0,2.5000001e-5)"
         id="path91" />
    </clipPath>
    <clipPath
       clipPathUnits="userSpaceOnUse"
       id="clipPath93">
      <path
         d="m 1042.01,1430.99 h 147 v -193 h -147 z"
         transform="matrix(1.3333333,0,0,-1.3333333,0,2666.6667)"
         id="path93" />
    </clipPath>
    <clipPath
       clipPathUnits="userSpaceOnUse"
       id="clipPath92">
      <path
         d="m 1042.01,1430.99 h 147 v -193 h -147 z"
         transform="matrix(4.9999999e-4,0,0,-4.9999999e-4,0,0.99999999)"
         id="path92" />
    </clipPath>
    <clipPath
       clipPathUnits="userSpaceOnUse"
       id="clipPath94">
      <path
         d="m 1042.01,1430.99 h 147 v -193 h -147 z"
         transform="translate(-1148.5869,-1313.3499)"
         id="path94" />
    </clipPath>
    <clipPath
       clipPathUnits="userSpaceOnUse"
       id="clipPath98">
      <path
         d="M 0,2000 H 2000 V 0 H 0 Z"
         transform="translate(-862.23662,-945.51322)"
         id="path98" />
    </clipPath>
    <clipPath
       clipPathUnits="userSpaceOnUse"
       id="clipPath105">
      <path
         d="M 0,2000 H 2000 V 0 H 0 Z"
         transform="matrix(1.3333333,0,0,-1.3333333,0,2666.6667)"
         id="path105" />
    </clipPath>
    <mask
       maskUnits="userSpaceOnUse"
       x="0"
       y="0"
       width="1"
       height="1"
       id="mask98">
      <path
         id="path99"
         d="m 690.928,958.986 h 174.085 v -181 H 690.928 Z"
         style="fill:#000000;fill-opacity:1;fill-rule:nonzero;stroke:none"
         transform="matrix(1.3333333,0,0,-1.3333333,0,2666.6667)"
         clip-path="url(#clipPath100)" />
      <g
         id="g101"
         clip-path="url(#clipPath102)">
        <image
           width="1"
           height="1"
           style="image-rendering:optimizeSpeed"
           preserveAspectRatio="none"
           xlink:href="../../../%E3%84%85%E3%84%86%E3%84%87%E9%85%B7icon_img12.png"
           transform="scale(2666.6667)"
           clip-path="url(#clipPath101)"
           id="image101" />
      </g>
    </mask>
    <clipPath
       clipPathUnits="userSpaceOnUse"
       id="clipPath100">
      <path
         d="m 691.012,958.987 h 174.001 v -181 H 691.012 Z"
         transform="translate(0,2.5000001e-5)"
         id="path100" />
    </clipPath>
    <clipPath
       clipPathUnits="userSpaceOnUse"
       id="clipPath102">
      <path
         d="m 691.012,958.987 h 174.001 v -181 H 691.012 Z"
         transform="matrix(1.3333333,0,0,-1.3333333,0,2666.6667)"
         id="path102" />
    </clipPath>
    <clipPath
       clipPathUnits="userSpaceOnUse"
       id="clipPath101">
      <path
         d="m 690.928,958.986 h 174.085 v -181 H 690.928 Z"
         transform="matrix(4.9999999e-4,0,0,-4.9999999e-4,0,0.99999999)"
         id="path101" />
    </clipPath>
    <clipPath
       clipPathUnits="userSpaceOnUse"
       id="clipPath103">
      <path
         d="m 691.012,958.987 h 174.001 v -181 H 691.012 Z"
         transform="translate(-862.23662,-945.51322)"
         id="path103" />
    </clipPath>
    <clipPath
       clipPathUnits="userSpaceOnUse"
       id="clipPath107">
      <path
         d="M 0,2000 H 2000 V 0 H 0 Z"
         transform="translate(-1394.0709,-803.97202)"
         id="path107" />
    </clipPath>
    <clipPath
       clipPathUnits="userSpaceOnUse"
       id="clipPath116">
      <path
         d="M 0,2000 H 2000 V 0 H 0 Z"
         transform="matrix(1.3333333,0,0,-1.3333333,0,2666.6667)"
         id="path116" />
    </clipPath>
    <mask
       maskUnits="userSpaceOnUse"
       x="0"
       y="0"
       width="1"
       height="1"
       id="mask107">
      <path
         id="path108"
         d="m 1111.999,930.011 h 293.012 V 680 h -293.012 z"
         style="fill:#000000;fill-opacity:1;fill-rule:nonzero;stroke:none"
         transform="matrix(1.3333333,0,0,-1.3333333,0,2666.6667)"
         clip-path="url(#clipPath109)" />
      <g
         id="g110"
         clip-path="url(#clipPath111)">
        <image
           width="1"
           height="1"
           style="image-rendering:optimizeSpeed"
           preserveAspectRatio="none"
           xlink:href="../../../%E3%84%85%E3%84%86%E3%84%87%E9%85%B7icon_img13.png"
           transform="scale(2666.6667)"
           clip-path="url(#clipPath110)"
           id="image110" />
      </g>
    </mask>
    <clipPath
       clipPathUnits="userSpaceOnUse"
       id="clipPath109">
      <path
         d="m 1112,930.01 h 293.01 V 680 H 1112 Z"
         transform="translate(0,2.5000001e-5)"
         id="path109" />
    </clipPath>
    <clipPath
       clipPathUnits="userSpaceOnUse"
       id="clipPath111">
      <path
         d="m 1112,930.01 h 293.01 V 680 H 1112 Z"
         transform="matrix(1.3333333,0,0,-1.3333333,0,2666.6667)"
         id="path111" />
    </clipPath>
    <clipPath
       clipPathUnits="userSpaceOnUse"
       id="clipPath110">
      <path
         d="m 1112,930.011 h 293.01 V 680 H 1112 Z"
         transform="matrix(4.9999999e-4,0,0,-4.9999999e-4,0,0.99999999)"
         id="path110" />
    </clipPath>
    <clipPath
       clipPathUnits="userSpaceOnUse"
       id="clipPath113">
      <path
         d="m 1112,930.01 h 293.01 V 680 H 1112 Z"
         transform="matrix(1.3333333,0,0,-1.3333333,0,2666.6667)"
         id="path113" />
    </clipPath>
    <clipPath
       clipPathUnits="userSpaceOnUse"
       id="clipPath112">
      <path
         d="m 1112,930.01 h 293.01 V 680 H 1112 Z"
         transform="translate(-1350.7158,-724.38922)"
         id="path112" />
    </clipPath>
  </defs>
  <g
     id="layer1"
     transform="translate(-82.814583,-114.3)">
    <g
       id="g1"
       transform="matrix(0.30290354,0,0,0.30290354,77.735757,54.128454)"
       style="display:inline;enable-background:new">
      <g
         id="g15">
        <path
           id="path5"
           d="m 0,0 c -10.155,23.186 -34.947,54.169 -34.947,54.169 l -327.775,2.407 c 0,0 -22.523,-17.19 -39.767,-52.965 -15.666,-32.501 -12.051,-51.761 -12.051,-62.595 v -250.381 c 0,0 -12.05,-75.836 97.61,-75.836 l 254.267,1.204 c 0,0 74.714,-6.019 74.714,79.447 V -61.391 C 12.051,-58.984 8.435,-19.26 0,0"
           style="fill:#74726e;fill-opacity:1;fill-rule:nonzero;stroke:none"
           transform="matrix(0.10104216,0,0,-0.10104216,58.692682,205.19661)"
           clip-path="none" />
        <path
           id="path76-3-1-3"
           d="m 17.984801,205.19661 c 1.026083,-2.34276 3.53112,-5.47335 3.53112,-5.47335 l 33.119093,-0.24321 c 0,0 2.275769,1.73691 4.018149,5.3517 1.58292,3.28397 1.21765,5.23004 1.21765,6.32473 v 25.29904 c 0,0 1.21756,7.66263 -9.862719,7.66263 L 24.316406,243.9965 c 0,0 -7.549264,0.60817 -7.549264,-8.0275 v -24.56931 c 0,-0.24321 0.365369,-4.25701 1.217659,-6.20308"
           style="display:inline;mix-blend-mode:luminosity;fill:url(#linearGradient89);fill-opacity:1;fill-rule:nonzero;stroke:none;stroke-width:0.101042;enable-background:new"
           clip-path="none" />
        <path
           id="path69-8-7-8"
           d="m 58.692682,205.19661 c -1.02608,-2.34276 -3.53112,-5.47335 -3.53112,-5.47335 l -33.119094,-0.24321 c 0,0 -2.275773,1.73691 -4.018144,5.3517 -1.582926,3.28397 -1.217659,5.23004 -1.217659,6.32473 v 25.29904 c 0,0 -1.217558,7.66263 9.862725,7.66263 l 25.691687,-0.12165 c 0,0 7.549265,0.60817 7.549265,-8.0275 v -24.56931 c 0,-0.24321 -0.36537,-4.25701 -1.21766,-6.20308"
           style="display:inline;mix-blend-mode:luminosity;fill:url(#linearGradient90);fill-opacity:1;fill-rule:nonzero;stroke:none;stroke-width:0.101042;enable-background:new"
           clip-path="none" />
      </g>
      <g
         id="g14">
        <path
           id="path14"
           d="m 0,0 h -302.252 c -11.046,0 -20,-8.954 -20,-20 v -330.764 c 0,-11.046 8.954,-20 20,-20 H 0 c 11.046,0 20,8.954 20,20 V -20 C 20,-8.954 11.046,0 0,0"
           style="fill:#c6c3be;fill-opacity:1;fill-rule:nonzero;stroke:none"
           transform="matrix(0.10104216,0,0,-0.10104216,53.750797,198.75024)"
           clip-path="none" />
        <path
           id="path24-4-7-8"
           d="M 53.750797,198.75024 H 23.210602 c -1.116112,0 -2.020843,0.90473 -2.020843,2.02084 v 33.42111 c 0,1.11611 0.904731,2.02085 2.020843,2.02085 h 30.540195 c 1.116112,0 2.020843,-0.90474 2.020843,-2.02085 v -33.42111 c 0,-1.11611 -0.904731,-2.02084 -2.020843,-2.02084"
           style="display:inline;mix-blend-mode:color-dodge;fill:url(#linearGradient87);fill-rule:nonzero;stroke:none;stroke-width:0.101042;enable-background:new"
           clip-path="none" />
        <path
           id="path45-8-5-5"
           d="M 53.750797,198.75024 H 23.210602 c -1.116112,0 -2.020843,0.90473 -2.020843,2.02084 v 33.42111 c 0,1.11611 0.904731,2.02085 2.020843,2.02085 h 30.540195 c 1.116112,0 2.020843,-0.90474 2.020843,-2.02085 v -33.42111 c 0,-1.11611 -0.904731,-2.02084 -2.020843,-2.02084"
           style="display:inline;mix-blend-mode:color-dodge;fill:url(#linearGradient88);fill-opacity:1;fill-rule:nonzero;stroke:none;stroke-width:0.101042;enable-background:new"
           clip-path="none" />
      </g>
      <g
         id="g11">
        <path
           id="path23"
           d="m 0,0 c -10.155,23.186 -34.947,54.169 -34.947,54.169 l -327.775,2.407 c 0,0 -22.524,-17.19 -39.767,-52.965 -15.666,-32.501 -12.051,-51.761 -12.051,-62.595 v -250.381 c 0,0 -12.05,-75.836 97.61,-75.836 l 254.267,1.204 c 0,0 74.713,-6.019 74.713,79.447 V -61.391 C 12.05,-58.984 8.435,-19.26 0,0"
           style="fill:#2f2e2c;fill-opacity:1;fill-rule:nonzero;stroke:none"
           transform="matrix(0.10104216,0,0,-0.10104216,102.03978,205.09557)"
           clip-path="none" />
        <path
           id="path76-3-1"
           d="m 61.331848,205.09557 c 1.026083,-2.34276 3.53112,-5.47335 3.53112,-5.47335 l 33.119093,-0.24321 c 0,0 2.275769,1.73691 4.018149,5.3517 1.58292,3.28397 1.21765,5.23004 1.21765,6.32473 v 25.29904 c 0,0 1.21756,7.66263 -9.862719,7.66263 l -25.691688,-0.12165 c 0,0 -7.549264,0.60817 -7.549264,-8.0275 v -24.56931 c 0,-0.24321 0.365369,-4.25701 1.217659,-6.20308"
           style="display:inline;mix-blend-mode:luminosity;fill:url(#linearGradient85);fill-opacity:1;fill-rule:nonzero;stroke:none;stroke-width:0.101042;enable-background:new"
           clip-path="none" />
        <path
           id="path69-8-7"
           d="m 102.03973,205.09557 c -1.02608,-2.34276 -3.53112,-5.47335 -3.53112,-5.47335 l -33.119094,-0.24321 c 0,0 -2.275773,1.73691 -4.018144,5.3517 -1.582926,3.28397 -1.217659,5.23004 -1.217659,6.32473 v 25.29904 c 0,0 -1.217558,7.66263 9.862725,7.66263 l 25.691687,-0.12165 c 0,0 7.549265,0.60817 7.549265,-8.0275 v -24.56931 c 0,-0.24321 -0.36537,-4.25701 -1.21766,-6.20308"
           style="display:inline;mix-blend-mode:luminosity;fill:url(#linearGradient86);fill-opacity:1;fill-rule:nonzero;stroke:none;stroke-width:0.101042;enable-background:new"
           clip-path="none" />
      </g>
      <g
         id="g10">
        <path
           id="path32-1"
           d="m 0,0 h -302.252 c -11.046,0 -20,-8.954 -20,-20 v -330.764 c 0,-11.046 8.954,-20 20,-20 H 0 c 11.046,0 20,8.954 20,20 V -20 C 20,-8.954 11.046,0 0,0"
           style="fill:#c6c3be;fill-opacity:1;fill-rule:nonzero;stroke:none"
           transform="matrix(0.10104216,0,0,-0.10104216,97.097896,198.6492)"
           clip-path="none" />
        <path
           id="path24-4-7"
           d="M 97.097896,198.6492 H 66.557701 c -1.116112,0 -2.020843,0.90473 -2.020843,2.02084 v 33.42111 c 0,1.11611 0.904731,2.02085 2.020843,2.02085 h 30.540195 c 1.116112,0 2.020843,-0.90474 2.020843,-2.02085 v -33.42111 c 0,-1.11611 -0.904731,-2.02084 -2.020843,-2.02084"
           style="display:inline;mix-blend-mode:color-dodge;fill:url(#linearGradient83);fill-rule:nonzero;stroke:none;stroke-width:0.101042;enable-background:new"
           clip-path="none" />
        <path
           id="path45-8-5"
           d="M 97.097896,198.6492 H 66.557701 c -1.116112,0 -2.020843,0.90473 -2.020843,2.02084 v 33.42111 c 0,1.11611 0.904731,2.02085 2.020843,2.02085 h 30.540195 c 1.116112,0 2.020843,-0.90474 2.020843,-2.02085 v -33.42111 c 0,-1.11611 -0.904731,-2.02084 -2.020843,-2.02084"
           style="display:inline;mix-blend-mode:color-dodge;fill:url(#linearGradient84);fill-opacity:1;fill-rule:nonzero;stroke:none;stroke-width:0.101042;enable-background:new"
           clip-path="none" />
      </g>
      <g
         id="g8">
        <path
           id="path41"
           d="m 0,0 c -10.155,23.186 -34.947,54.169 -34.947,54.169 l -327.775,2.407 c 0,0 -22.523,-17.19 -39.767,-52.965 -15.666,-32.501 -12.051,-51.761 -12.051,-62.595 v -250.381 c 0,0 -12.05,-75.836 97.61,-75.836 l 254.267,1.204 c 0,0 74.714,-6.019 74.714,79.447 V -61.391 C 12.051,-58.984 8.435,-19.26 0,0"
           style="fill:#74726e;fill-opacity:1;fill-rule:nonzero;stroke:none"
           clip-path="none"
           transform="matrix(0.10104216,0,0,-0.10104216,66.573969,247.94374)" />
        <path
           id="path76-3"
           d="m 25.866088,247.94374 c 1.026083,-2.34276 3.53112,-5.47335 3.53112,-5.47335 l 33.119093,-0.24321 c 0,0 2.27577,1.73691 4.01815,5.3517 1.58292,3.28397 1.21765,5.23004 1.21765,6.32473 v 25.29904 c 0,0 1.21756,7.66263 -9.86272,7.66263 l -25.691688,-0.12165 c 0,0 -7.549264,0.60817 -7.549264,-8.0275 v -24.56931 c 0,-0.24321 0.365369,-4.25701 1.217659,-6.20308"
           style="display:inline;mix-blend-mode:luminosity;fill:url(#linearGradient77);fill-opacity:1;fill-rule:nonzero;stroke:none;stroke-width:0.101042;enable-background:new"
           clip-path="none" />
        <path
           id="path69-8"
           d="m 66.573969,247.94374 c -1.026083,-2.34276 -3.53112,-5.47335 -3.53112,-5.47335 l -33.119094,-0.24321 c 0,0 -2.275773,1.73691 -4.018144,5.3517 -1.582926,3.28397 -1.217659,5.23004 -1.217659,6.32473 v 25.29904 c 0,0 -1.217558,7.66263 9.862725,7.66263 l 25.691687,-0.12165 c 0,0 7.549264,0.60817 7.549264,-8.0275 v -24.56931 c 0,-0.24321 -0.365368,-4.25701 -1.217659,-6.20308"
           style="display:inline;mix-blend-mode:luminosity;fill:url(#linearGradient78);fill-opacity:1;fill-rule:nonzero;stroke:none;stroke-width:0.101042;enable-background:new"
           clip-path="none" />
      </g>
      <g
         id="g7">
        <path
           id="path50"
           d="m 0,0 h -302.252 c -11.046,0 -20,-8.954 -20,-20 v -330.764 c 0,-11.046 8.954,-20 20,-20 H 0 c 11.046,0 20,8.954 20,20 V -20 C 20,-8.954 11.046,0 0,0"
           style="fill:#c6c3be;fill-opacity:1;fill-rule:nonzero;stroke:none"
           transform="matrix(0.10104216,0,0,-0.10104216,61.632074,241.49734)"
           clip-path="none" />
        <path
           id="path24-4"
           d="M 61.632074,241.49734 H 31.091879 c -1.116112,0 -2.020843,0.90473 -2.020843,2.02084 v 33.42111 c 0,1.11611 0.904731,2.02085 2.020843,2.02085 h 30.540195 c 1.116112,0 2.020843,-0.90474 2.020843,-2.02085 v -33.42111 c 0,-1.11611 -0.904731,-2.02084 -2.020843,-2.02084"
           style="display:inline;mix-blend-mode:color-dodge;fill:url(#linearGradient44-5);fill-rule:nonzero;stroke:none;stroke-width:0.101042;enable-background:new"
           clip-path="none" />
        <path
           id="path45-8"
           d="M 61.632074,241.49734 H 31.091879 c -1.116112,0 -2.020843,0.90473 -2.020843,2.02084 v 33.42111 c 0,1.11611 0.904731,2.02085 2.020843,2.02085 h 30.540195 c 1.116112,0 2.020843,-0.90474 2.020843,-2.02085 v -33.42111 c 0,-1.11611 -0.904731,-2.02084 -2.020843,-2.02084"
           style="display:inline;mix-blend-mode:color-dodge;fill:url(#linearGradient45-1);fill-opacity:1;fill-rule:nonzero;stroke:none;stroke-width:0.101042;enable-background:new"
           clip-path="none" />
      </g>
      <g
         id="g6">
        <path
           id="path59"
           d="m 0,0 c -10.155,23.186 -34.947,54.169 -34.947,54.169 l -327.775,2.407 c 0,0 -22.523,-17.19 -39.767,-52.965 -15.666,-32.501 -12.051,-51.761 -12.051,-62.595 v -250.381 c 0,0 -12.05,-75.836 97.61,-75.836 l 254.267,1.204 c 0,0 74.714,-6.019 74.714,79.447 V -61.391 C 12.051,-58.984 8.435,-19.26 0,0"
           style="display:inline;fill:#d79006;fill-opacity:1;fill-rule:nonzero;stroke:none"
           clip-path="none"
           transform="matrix(0.10104216,0,0,-0.10104216,109.92106,247.84268)" />
        <path
           id="path76"
           d="m 69.213177,247.84268 c 1.026083,-2.34276 3.53112,-5.47335 3.53112,-5.47335 l 33.119093,-0.24321 c 0,0 2.27577,1.73691 4.01815,5.3517 1.58292,3.28397 1.21765,5.23004 1.21765,6.32473 v 25.29904 c 0,0 1.21756,7.66263 -9.86272,7.66263 l -25.691688,-0.12165 c 0,0 -7.549264,0.60817 -7.549264,-8.0275 v -24.56931 c 0,-0.24321 0.365369,-4.25701 1.217659,-6.20308"
           style="mix-blend-mode:luminosity;fill:url(#linearGradient76);fill-opacity:1;fill-rule:nonzero;stroke:none;stroke-width:0.101042"
           clip-path="none" />
        <path
           id="path69"
           d="m 0,0 c -10.155,23.186 -34.947,54.169 -34.947,54.169 l -327.775,2.407 c 0,0 -22.523,-17.19 -39.767,-52.965 -15.666,-32.501 -12.051,-51.761 -12.051,-62.595 v -250.381 c 0,0 -12.05,-75.836 97.61,-75.836 l 254.267,1.204 c 0,0 74.714,-6.019 74.714,79.447 V -61.391 C 12.051,-58.984 8.435,-19.26 0,0"
           style="mix-blend-mode:luminosity;fill:url(#linearGradient70);fill-opacity:1;fill-rule:nonzero;stroke:none"
           clip-path="none"
           transform="matrix(0.10104216,0,0,-0.10104216,109.92106,247.84268)" />
      </g>
      <g
         id="g5">
        <path
           id="path68"
           d="m 0,0 h -302.252 c -11.046,0 -20,-8.954 -20,-20 v -330.764 c 0,-11.046 8.954,-20 20,-20 H 0 c 11.046,0 20,8.954 20,20 V -20 C 20,-8.954 11.046,0 0,0"
           style="fill:#ffc555;fill-opacity:1;fill-rule:nonzero;stroke:none"
           transform="matrix(0.10104216,0,0,-0.10104216,104.97917,241.3963)"
           clip-path="none" />
        <path
           id="path24"
           d="m 0,0 h -302.252 c -11.046,0 -20,-8.954 -20,-20 v -330.764 c 0,-11.046 8.954,-20 20,-20 H 0 c 11.046,0 20,8.954 20,20 V -20 C 20,-8.954 11.046,0 0,0"
           style="opacity:1;mix-blend-mode:screen;fill:url(#linearGradient44);fill-rule:nonzero;stroke:none"
           transform="matrix(0.10104216,0,0,-0.10104216,104.97917,241.3963)"
           clip-path="none" />
        <path
           id="path45"
           d="m 0,0 h -302.252 c -11.046,0 -20,-8.954 -20,-20 v -330.764 c 0,-11.046 8.954,-20 20,-20 H 0 c 11.046,0 20,8.954 20,20 V -20 C 20,-8.954 11.046,0 0,0"
           style="opacity:1;mix-blend-mode:overlay;fill:url(#linearGradient45);fill-opacity:1;fill-rule:nonzero;stroke:none"
           transform="matrix(0.10104216,0,0,-0.10104216,104.97917,241.3963)"
           clip-path="none" />
      </g>
      <g
         id="g4">
        <path
           id="path79"
           d="m 0,0 c -1.534,1.988 -3.45,4.21 -5.75,6.661 -2.299,2.447 -4.369,4.364 -6.209,5.742 -1.84,1.378 -3.374,2.372 -4.6,2.986 h -2.99 c -0.46,0 -1.074,-0.155 -1.839,-0.46 -0.769,-0.308 -1.535,-0.768 -2.3,-1.378 -0.769,-0.613 -1.459,-1.227 -2.07,-1.837 -6.134,-1.228 -13.569,-2.606 -22.308,-4.134 -8.74,-1.533 -18.554,-3.141 -29.438,-4.824 -10.888,-1.687 -20.239,-3.14 -28.058,-4.364 -7.82,-1.227 -14.338,-2.297 -19.549,-3.215 l -1.84,1.837 h -1.839 c 0.61,3.061 1.915,6.812 3.909,11.255 1.991,4.439 4.751,9.567 8.28,15.388 3.525,5.818 6.439,10.946 8.739,15.389 2.3,4.44 3.91,8.19 4.83,11.255 -1.229,0.918 -2.609,1.913 -4.14,2.986 -1.534,1.069 -3.299,2.067 -5.29,2.986 -1.994,0.918 -3.909,1.607 -5.749,2.067 -1.84,0.459 -3.529,0.839 -5.06,1.148 -0.614,-3.675 -1.689,-8.118 -3.22,-13.321 -1.534,-5.208 -3.909,-11.025 -7.129,-17.457 -3.22,-6.431 -6.364,-11.943 -9.429,-16.537 -3.069,-4.593 -5.674,-8.423 -7.82,-11.484 -1.229,-0.919 -2.379,-2.376 -3.45,-4.364 -1.074,-1.992 -1.304,-4.518 -0.69,-7.58 0.611,-3.064 1.916,-5.591 3.91,-7.579 1.991,-1.992 3.91,-3.445 5.75,-4.364 v -1.838 c 7.05,2.448 15.789,5.204 26.218,8.269 10.425,3.061 22.384,5.972 35.877,8.728 13.49,2.756 25.144,4.744 34.958,5.972 9.81,1.223 17.938,2.142 24.378,2.756 l 3.68,-3.675 c 0.305,-3.065 0.305,-7.274 0,-12.633 -0.309,-5.361 -1.46,-12.098 -3.45,-20.212 -1.995,-8.118 -4.219,-15.313 -6.67,-21.59 -2.454,-6.281 -4.599,-11.409 -6.439,-15.389 -0.92,-1.838 -2.225,-4.594 -3.91,-8.269 -1.689,-3.675 -4.14,-8.118 -7.359,-13.321 -3.22,-5.208 -6.44,-9.342 -9.66,-12.403 -3.219,-3.065 -6.058,-5.204 -8.509,-6.432 h -1.84 c -1.534,0.309 -3.299,0.844 -5.29,1.608 -1.994,0.768 -4.218,1.759 -6.669,2.986 -2.455,1.224 -4.679,2.218 -6.669,2.986 -1.995,0.764 -3.759,1.299 -5.29,1.608 1.225,-1.838 2.835,-3.984 4.829,-6.431 1.991,-2.448 4.291,-5.129 6.9,-8.039 2.605,-2.907 4.751,-5.434 6.439,-7.58 1.686,-2.143 2.99,-3.98 3.91,-5.512 v -1.838 c 2.146,-0.61 4.83,-0.534 8.05,0.23 3.219,0.768 6.745,2.835 10.579,6.201 3.83,3.37 6.899,6.661 9.199,9.877 2.3,3.215 4.061,5.742 5.29,7.579 h 1.84 c 3.679,6.123 7.359,13.552 11.039,22.28 3.68,8.728 7.129,18.68 10.349,29.859 3.22,11.175 6.21,20.976 8.969,29.4 2.76,8.419 5.52,15.539 8.28,21.36 v 1.838 C 2.76,-3.6 1.531,-1.992 0,0"
           style="fill:#4a4843;fill-opacity:1;fill-rule:nonzero;stroke:none"
           transform="matrix(0.10104216,0,0,-0.10104216,40.644819,207.65599)"
           clip-path="url(#clipPath80)" />
        <g
           mask="url(#mask80)"
           id="g87"
           clip-path="url(#clipPath87)"
           transform="matrix(0.07578162,0,0,0.07578162,-36.989126,143.7833)">
          <g
             id="g86">
            <path
               d="m 0,0 c -1.534,1.988 -3.45,4.21 -5.75,6.661 -2.299,2.447 -4.369,4.364 -6.209,5.742 -1.84,1.378 -3.374,2.372 -4.6,2.986 h -2.99 c -0.46,0 -1.074,-0.155 -1.839,-0.46 -0.769,-0.308 -1.535,-0.768 -2.3,-1.378 -0.769,-0.613 -1.459,-1.227 -2.07,-1.837 -6.134,-1.228 -13.569,-2.606 -22.308,-4.135 -8.74,-1.532 -18.554,-3.14 -29.438,-4.823 -10.888,-1.687 -20.239,-3.14 -28.058,-4.364 -7.82,-1.227 -14.338,-2.297 -19.549,-3.215 l -1.84,1.837 h -1.839 c 0.61,3.061 1.915,6.812 3.909,11.255 1.991,4.439 4.751,9.567 8.28,15.388 3.525,5.818 6.439,10.946 8.739,15.389 2.3,4.44 3.91,8.19 4.83,11.255 -1.229,0.918 -2.609,1.913 -4.14,2.986 -1.534,1.069 -3.299,2.067 -5.29,2.986 -1.994,0.918 -3.909,1.607 -5.749,2.067 -1.84,0.459 -3.529,0.839 -5.06,1.148 -0.614,-3.675 -1.689,-8.118 -3.22,-13.321 -1.534,-5.208 -3.909,-11.025 -7.129,-17.457 -3.22,-6.431 -6.364,-11.943 -9.429,-16.537 -3.069,-4.594 -5.674,-8.423 -7.82,-11.484 -1.229,-0.919 -2.379,-2.376 -3.45,-4.364 -1.074,-1.992 -1.304,-4.518 -0.69,-7.58 0.611,-3.065 1.916,-5.591 3.91,-7.579 1.991,-1.992 3.91,-3.446 5.75,-4.364 v -1.838 c 7.05,2.448 15.789,5.204 26.218,8.269 10.425,3.061 22.384,5.972 35.877,8.728 13.49,2.756 25.144,4.744 34.958,5.972 9.81,1.223 17.938,2.142 24.378,2.756 l 3.68,-3.675 c 0.305,-3.065 0.305,-7.274 0,-12.633 -0.309,-5.361 -1.46,-12.098 -3.45,-20.212 -1.995,-8.118 -4.219,-15.313 -6.67,-21.59 -2.454,-6.281 -4.599,-11.409 -6.439,-15.389 -0.92,-1.838 -2.225,-4.594 -3.91,-8.269 -1.689,-3.675 -4.14,-8.118 -7.359,-13.321 -3.22,-5.208 -6.44,-9.342 -9.66,-12.403 -3.219,-3.065 -6.058,-5.204 -8.509,-6.432 h -1.84 c -1.534,0.309 -3.299,0.844 -5.29,1.608 -1.994,0.768 -4.218,1.759 -6.669,2.986 -2.455,1.224 -4.679,2.218 -6.669,2.986 -1.995,0.764 -3.759,1.299 -5.29,1.608 1.225,-1.838 2.835,-3.984 4.829,-6.431 1.991,-2.448 4.291,-5.129 6.9,-8.039 2.605,-2.907 4.751,-5.434 6.439,-7.58 1.686,-2.143 2.99,-3.98 3.91,-5.512 v -1.838 c 2.146,-0.61 4.83,-0.535 8.05,0.23 3.219,0.768 6.745,2.835 10.579,6.201 3.83,3.37 6.899,6.661 9.199,9.877 2.3,3.215 4.061,5.742 5.29,7.579 h 1.84 c 3.679,6.123 7.359,13.552 11.039,22.28 3.68,8.728 7.129,18.68 10.349,29.859 3.22,11.175 6.21,20.976 8.969,29.4 2.76,8.419 5.52,15.539 8.28,21.36 v 1.838 C 2.76,-3.6 1.531,-1.992 0,0"
               style="fill:#37342f;fill-opacity:1;fill-rule:nonzero;stroke:none"
               transform="matrix(1.3333333,0,0,-1.3333333,1024.4429,840.66693)"
               clip-path="url(#clipPath85)"
               id="path86" />
          </g>
        </g>
      </g>
      <g
         id="g3">
        <path
           id="path88"
           d="m 0,0 c 3.98,5.819 8.344,12.637 13.092,20.449 4.745,7.812 9.263,14.78 13.552,20.908 4.285,6.125 8.269,11.334 11.944,15.624 h 1.837 c -0.309,1.838 -1.148,4.057 -2.527,6.663 -1.378,2.603 -3.445,5.206 -6.201,7.812 -2.756,2.603 -5.132,4.441 -7.12,5.514 -1.992,1.07 -3.446,1.759 -4.365,2.068 H 18.375 C 14.7,77.505 10.106,75.742 4.594,73.754 -0.919,71.761 -7.199,69.769 -14.24,67.78 c -7.045,-1.993 -13.017,-3.526 -17.916,-4.595 -4.903,-1.074 -8.883,-1.918 -11.944,-2.528 -1.838,-0.309 -4.289,-0.844 -7.35,-1.608 -3.065,-0.768 -6.74,-1.688 -11.025,-2.757 -4.289,-1.074 -7.964,-1.838 -11.025,-2.298 -3.065,-0.46 -5.512,-0.689 -7.35,-0.689 h -1.838 c 0.306,3.062 0.919,6.663 1.838,10.799 0.919,4.135 2.756,8.806 5.513,14.015 2.756,5.206 5.817,9.88 9.187,14.016 3.366,4.135 6.431,7.732 9.188,10.798 -0.919,0.919 -2.147,2.219 -3.675,3.906 -1.533,1.684 -3.446,3.522 -5.743,5.515 -2.297,1.989 -4.364,3.367 -6.201,4.135 -1.838,0.765 -3.37,1.149 -4.594,1.149 0,-4.595 -0.768,-10.034 -2.297,-16.313 -1.532,-6.283 -4.288,-13.326 -8.269,-21.138 -3.983,-7.812 -7.658,-14.705 -11.025,-20.679 -3.369,-5.974 -5.971,-11.107 -7.809,-15.394 0.305,-0.614 0.689,-1.378 1.148,-2.297 0.46,-0.919 1.07,-1.993 1.838,-3.217 0.765,-1.228 1.529,-2.298 2.297,-3.217 0.764,-0.919 1.453,-1.687 2.067,-2.297 l 1.838,-1.838 c 7.041,2.757 15.31,5.894 24.806,9.42 9.492,3.522 20.058,6.968 31.697,10.339 11.635,3.368 21.895,5.895 30.778,7.582 8.879,1.684 16.537,2.987 22.969,3.906 L 14.7,60.657 16.537,58.819 C 16.229,58.51 15.924,58.051 15.619,57.44 15.31,56.827 15.081,56.137 14.93,55.373 14.775,54.604 14.7,53.915 14.7,53.305 13.168,49.934 10.946,45.644 8.039,40.438 5.129,35.229 1.224,29.18 -3.675,22.287 -8.577,15.394 -13.092,9.496 -17.227,4.595 c -4.134,-4.904 -7.579,-8.885 -10.335,-11.947 -2.146,0.919 -4.978,2.297 -8.499,4.135 -3.524,1.838 -7.809,3.906 -12.862,6.204 -5.053,2.298 -9.496,3.906 -13.322,4.825 -3.829,0.919 -6.97,1.379 -9.417,1.379 1.223,-1.228 2.677,-2.528 4.364,-3.906 1.683,-1.379 3.596,-2.758 5.742,-4.136 2.142,-1.379 4.055,-2.607 5.742,-3.676 1.683,-1.074 3.137,-2.068 4.364,-2.987 1.224,-0.614 2.527,-1.379 3.905,-2.298 1.378,-0.919 2.756,-1.992 4.134,-3.217 1.378,-1.227 2.602,-2.297 3.675,-3.216 1.07,-0.919 2.067,-1.688 2.986,-2.298 h 1.837 c -3.675,-3.676 -8.498,-8.35 -14.47,-14.015 -5.972,-5.669 -13.092,-11.873 -21.361,-18.611 -8.268,-6.738 -15.389,-12.023 -21.361,-15.854 -5.971,-3.827 -10.795,-6.663 -14.47,-8.501 v -1.838 h 3.675 c 5.204,1.533 11.33,3.676 18.375,6.433 7.041,2.757 14.775,6.742 23.198,11.948 8.42,5.209 15.695,10.415 21.821,15.624 6.122,5.205 11.33,9.801 15.619,13.785 h 1.837 l 1.838,-1.838 1.837,-1.838 c 2.756,-1.838 5.972,-4.365 9.647,-7.582 3.675,-3.216 7.809,-7.277 12.403,-12.177 4.594,-4.9 8.728,-9.266 12.403,-13.097 3.675,-3.827 6.891,-6.968 9.647,-9.42 l 1.837,-1.838 h 3.676 l 1.837,1.838 c 0.305,1.533 0.61,3.601 0.919,6.204 0.305,2.606 0.151,5.744 -0.46,9.42 -0.613,3.676 -1.686,6.817 -3.215,9.42 -1.533,2.603 -3.065,4.671 -4.594,6.204 v 1.838 c -2.146,1.529 -4.748,3.367 -7.809,5.514 -3.065,2.143 -6.586,4.517 -10.566,7.123 -3.984,2.603 -7.504,4.825 -10.566,6.663 -3.065,1.838 -5.666,3.367 -7.809,4.595 v 1.838 C -7.659,-10.724 -3.984,-5.823 0,0"
           style="fill:#4a4843;fill-opacity:1;fill-rule:nonzero;stroke:none"
           transform="matrix(0.10104216,0,0,-0.10104216,79.066577,213.39082)"
           clip-path="url(#clipPath89)" />
        <g
           mask="url(#mask89)"
           id="g96"
           clip-path="url(#clipPath96)"
           transform="matrix(0.07578162,0,0,0.07578162,-36.989126,144.0102)">
          <g
             id="g95">
            <path
               d="m 0,0 c 3.98,5.819 8.344,12.637 13.092,20.449 4.745,7.812 9.263,14.78 13.552,20.908 4.285,6.125 8.269,11.334 11.944,15.624 h 1.837 c -0.309,1.838 -1.148,4.057 -2.527,6.663 -1.378,2.603 -3.445,5.206 -6.201,7.812 -2.756,2.603 -5.132,4.441 -7.12,5.514 -1.992,1.07 -3.446,1.759 -4.365,2.068 H 18.375 C 14.7,77.505 10.106,75.742 4.594,73.754 -0.919,71.761 -7.199,69.769 -14.24,67.78 c -7.045,-1.993 -13.017,-3.526 -17.916,-4.595 -4.903,-1.074 -8.883,-1.918 -11.944,-2.528 -1.838,-0.309 -4.289,-0.844 -7.35,-1.608 -3.065,-0.768 -6.74,-1.688 -11.025,-2.757 -4.289,-1.074 -7.964,-1.838 -11.025,-2.298 -3.065,-0.46 -5.512,-0.689 -7.35,-0.689 h -1.838 c 0.306,3.062 0.919,6.663 1.838,10.799 0.919,4.135 2.756,8.806 5.513,14.015 2.756,5.206 5.817,9.88 9.187,14.016 3.366,4.135 6.431,7.732 9.188,10.798 -0.919,0.919 -2.147,2.219 -3.675,3.906 -1.533,1.684 -3.446,3.522 -5.743,5.515 -2.297,1.989 -4.364,3.367 -6.201,4.135 -1.838,0.765 -3.37,1.149 -4.594,1.149 0,-4.595 -0.768,-10.034 -2.297,-16.313 -1.532,-6.283 -4.288,-13.326 -8.269,-21.138 -3.983,-7.812 -7.658,-14.705 -11.025,-20.679 -3.369,-5.974 -5.971,-11.107 -7.809,-15.394 0.305,-0.614 0.689,-1.378 1.148,-2.297 0.46,-0.919 1.07,-1.993 1.838,-3.217 0.765,-1.228 1.529,-2.298 2.297,-3.217 0.764,-0.919 1.453,-1.687 2.067,-2.297 l 1.838,-1.838 c 7.041,2.757 15.31,5.894 24.806,9.42 9.492,3.522 20.058,6.968 31.697,10.339 11.635,3.368 21.895,5.895 30.778,7.582 8.879,1.684 16.537,2.987 22.969,3.906 L 14.7,60.657 16.537,58.819 C 16.229,58.51 15.924,58.051 15.619,57.44 15.31,56.827 15.081,56.137 14.93,55.373 14.775,54.604 14.7,53.915 14.7,53.305 13.168,49.934 10.946,45.644 8.039,40.438 5.129,35.229 1.224,29.18 -3.675,22.287 -8.577,15.394 -13.092,9.496 -17.227,4.595 c -4.134,-4.904 -7.579,-8.885 -10.335,-11.947 -2.146,0.919 -4.978,2.297 -8.499,4.135 -3.524,1.838 -7.809,3.906 -12.862,6.204 -5.053,2.298 -9.496,3.906 -13.322,4.825 -3.829,0.919 -6.97,1.379 -9.417,1.379 1.223,-1.228 2.677,-2.528 4.364,-3.906 1.683,-1.379 3.596,-2.758 5.742,-4.136 2.142,-1.379 4.055,-2.607 5.742,-3.676 1.683,-1.074 3.137,-2.068 4.364,-2.987 1.224,-0.614 2.527,-1.379 3.905,-2.298 1.378,-0.919 2.756,-1.992 4.134,-3.217 1.378,-1.227 2.602,-2.297 3.675,-3.216 1.07,-0.919 2.067,-1.688 2.986,-2.298 h 1.837 c -3.675,-3.676 -8.498,-8.35 -14.47,-14.015 -5.972,-5.669 -13.092,-11.873 -21.361,-18.611 -8.268,-6.738 -15.389,-12.023 -21.361,-15.854 -5.971,-3.827 -10.795,-6.663 -14.47,-8.501 v -1.838 h 3.675 c 5.204,1.533 11.33,3.676 18.375,6.433 7.041,2.757 14.775,6.742 23.198,11.948 8.42,5.209 15.695,10.415 21.821,15.624 6.122,5.205 11.33,9.801 15.619,13.785 h 1.837 l 1.838,-1.838 1.837,-1.838 c 2.756,-1.838 5.972,-4.365 9.647,-7.582 3.675,-3.216 7.809,-7.277 12.403,-12.177 4.594,-4.9 8.728,-9.266 12.403,-13.097 3.675,-3.827 6.891,-6.968 9.647,-9.42 l 1.837,-1.838 h 3.676 l 1.837,1.838 c 0.305,1.533 0.61,3.601 0.919,6.204 0.305,2.606 0.151,5.744 -0.46,9.42 -0.613,3.676 -1.686,6.817 -3.215,9.42 -1.533,2.603 -3.065,4.671 -4.594,6.204 v 1.838 c -2.146,1.529 -4.748,3.367 -7.809,5.514 -3.065,2.143 -6.586,4.517 -10.566,7.123 -3.984,2.603 -7.504,4.825 -10.566,6.663 -3.065,1.838 -5.666,3.367 -7.809,4.595 v 1.838 C -7.659,-10.724 -3.984,-5.823 0,0"
               style="fill:#37342f;fill-opacity:1;fill-rule:nonzero;stroke:none"
               transform="matrix(1.3333333,0,0,-1.3333333,1531.4492,915.53347)"
               clip-path="url(#clipPath94)"
               id="path95" />
          </g>
        </g>
      </g>
      <g
         id="g2">
        <path
           id="path97"
           d="m 0,0 c -1.179,1.863 -2.863,3.813 -5.049,5.847 -2.188,2.034 -4.377,3.642 -6.562,4.83 -2.189,1.184 -4.126,2.117 -5.806,2.796 C -21.12,11.098 -25.494,8.898 -30.543,6.864 -35.591,4.83 -41.231,3.388 -47.455,2.542 -53.682,1.692 -59.153,1.1 -63.862,0.763 c -4.713,-0.342 -8.752,-0.85 -12.116,-1.526 -4.378,-0.341 -9.844,-1.104 -16.407,-2.288 -6.563,-1.187 -14.222,-2.796 -22.97,-4.83 -8.752,-2.033 -16.407,-3.646 -22.97,-4.83 -6.563,-1.187 -12.033,-1.95 -16.407,-2.288 -0.339,0.338 -0.927,0.847 -1.767,1.526 -0.844,0.675 -1.937,1.525 -3.282,2.542 -1.348,1.017 -2.441,1.863 -3.281,2.542 -0.844,0.675 -1.432,1.184 -1.767,1.525 -1.349,0.675 -2.611,0.93 -3.786,0.763 -1.179,-0.171 -1.937,-1.017 -2.272,-2.542 -0.339,-1.525 -0.422,-2.884 -0.252,-4.068 0.165,-1.187 0.252,-1.95 0.252,-2.288 l 2.02,-14.235 c 0,-1.697 0.082,-3.814 0.252,-6.356 0.165,-2.542 0.418,-5.509 0.757,-8.897 0.335,-3.392 0.588,-6.356 0.757,-8.898 0.166,-2.542 0.253,-4.663 0.253,-6.355 v -28.472 c 0,-2.034 -0.087,-4.576 -0.253,-7.626 -0.169,-3.051 -0.422,-6.527 -0.757,-10.423 -0.339,-3.901 -0.592,-7.205 -0.757,-9.914 -0.17,-2.713 -0.252,-4.918 -0.252,-6.61 v -2.034 c 0.335,-1.017 0.757,-2.542 1.261,-4.576 0.505,-2.033 1.263,-4.575 2.272,-7.626 1.01,-3.051 2.102,-5.593 3.282,-7.626 1.175,-2.034 2.271,-3.559 3.281,-4.576 l 2.019,-2.034 h 4.039 c 0.671,0.338 1.345,1.017 2.02,2.034 0.67,1.017 1.175,2.371 1.514,4.067 0.335,1.692 0.505,3.051 0.505,4.067 v 70.164 c 0,5.084 -0.087,10.76 -0.253,17.032 -0.169,6.268 -0.422,11.777 -0.757,16.524 -0.339,4.742 -0.674,8.81 -1.009,12.202 l 2.019,2.034 c 0.335,-0.68 0.84,-1.442 1.514,-2.288 0.671,-0.85 1.598,-1.613 2.777,-2.288 1.175,-0.679 2.272,-1.104 3.281,-1.271 1.01,-0.171 1.85,-0.254 2.525,-0.254 6.058,2.033 13.543,4.488 22.465,7.372 8.917,2.88 19.349,5.676 31.3,8.389 11.946,2.709 22.548,4.488 31.804,5.338 9.253,0.846 17.078,1.271 23.475,1.271 h 2.019 l 4.039,-4.067 v -2.034 c 0.671,-1.696 1.262,-3.646 1.767,-5.847 0.505,-2.204 0.84,-4.663 1.01,-7.372 0.165,-2.713 0.335,-5.171 0.505,-7.372 0.165,-2.205 0.418,-4.155 0.757,-5.847 v -42.708 c 0,-3.392 -0.087,-7.626 -0.253,-12.711 -0.169,-5.084 -0.504,-11.185 -1.009,-18.303 -0.505,-7.118 -1.01,-13.561 -1.515,-19.32 -0.505,-5.764 -0.927,-10.677 -1.262,-14.745 v -2.033 c 0.335,-0.679 0.757,-1.613 1.262,-2.797 0.505,-1.187 1.176,-2.712 2.02,-4.575 0.839,-1.863 1.68,-3.559 2.524,-5.085 0.84,-1.525 1.597,-2.796 2.271,-3.813 v -2.034 c 0.336,0 0.758,0.088 1.263,0.255 0.504,0.17 1.092,0.425 1.766,0.762 0.671,0.342 1.262,0.596 1.767,0.763 0.505,0.171 0.923,0.254 1.262,0.254 l 2.02,2.034 c 1.01,3.05 1.932,6.776 2.776,11.185 0.841,4.405 1.428,9.319 1.767,14.745 0.336,5.422 0.588,9.997 0.758,13.727 0.165,3.726 0.418,6.776 0.757,9.152 v 22.371 c 0,0.337 0.083,0.929 0.252,1.779 0.166,0.846 0.418,1.946 0.757,3.305 0.336,1.354 0.588,2.455 0.758,3.305 0.165,0.846 0.252,1.438 0.252,1.779 v 56.944 C 0.418,-24.15 0.166,-22.796 0,-21.1 c -0.17,1.692 -0.087,3.643 0.252,5.847 0.336,2.201 0.758,3.98 1.263,5.339 0.504,1.354 0.922,2.371 1.261,3.05 V -4.83 C 2.102,-3.475 1.175,-1.867 0,0"
           style="fill:#4a4843;fill-opacity:1;fill-rule:nonzero;stroke:none"
           transform="matrix(0.10104216,0,0,-0.10104216,50.133126,246.29552)"
           clip-path="url(#clipPath98)" />
        <g
           mask="url(#mask98)"
           id="g105"
           clip-path="url(#clipPath105)"
           transform="matrix(0.07578162,0,0,0.07578162,-36.989126,139.74789)">
          <g
             id="g104">
            <path
               d="m 0,0 c -1.179,1.863 -2.863,3.813 -5.049,5.847 -2.188,2.034 -4.377,3.642 -6.562,4.83 -2.189,1.184 -4.126,2.117 -5.806,2.796 C -21.12,11.098 -25.494,8.898 -30.543,6.864 -35.591,4.83 -41.231,3.388 -47.455,2.542 -53.682,1.692 -59.153,1.1 -63.862,0.763 c -4.713,-0.342 -8.752,-0.85 -12.116,-1.526 -4.378,-0.341 -9.844,-1.104 -16.407,-2.288 -6.563,-1.187 -14.222,-2.796 -22.97,-4.83 -8.752,-2.033 -16.407,-3.646 -22.97,-4.83 -6.563,-1.187 -12.033,-1.95 -16.407,-2.288 -0.339,0.338 -0.927,0.847 -1.767,1.526 -0.844,0.675 -1.937,1.525 -3.282,2.542 -1.348,1.017 -2.441,1.863 -3.281,2.542 -0.844,0.675 -1.432,1.184 -1.767,1.525 -1.349,0.675 -2.611,0.93 -3.786,0.763 -1.179,-0.171 -1.937,-1.017 -2.272,-2.542 -0.339,-1.525 -0.422,-2.884 -0.252,-4.068 0.165,-1.187 0.252,-1.95 0.252,-2.288 l 2.02,-14.235 c 0,-1.697 0.082,-3.814 0.252,-6.356 0.165,-2.542 0.418,-5.509 0.757,-8.897 0.335,-3.392 0.588,-6.356 0.757,-8.898 0.166,-2.542 0.253,-4.663 0.253,-6.355 v -28.472 c 0,-2.034 -0.087,-4.576 -0.253,-7.626 -0.169,-3.051 -0.422,-6.527 -0.757,-10.423 -0.339,-3.901 -0.592,-7.205 -0.757,-9.914 -0.17,-2.713 -0.252,-4.918 -0.252,-6.61 v -2.034 c 0.335,-1.017 0.757,-2.542 1.261,-4.576 0.505,-2.033 1.263,-4.575 2.272,-7.626 1.01,-3.051 2.102,-5.593 3.282,-7.626 1.175,-2.034 2.271,-3.559 3.281,-4.576 l 2.019,-2.034 h 4.039 c 0.671,0.338 1.345,1.017 2.02,2.034 0.67,1.017 1.175,2.371 1.514,4.067 0.335,1.692 0.505,3.051 0.505,4.067 v 70.164 c 0,5.084 -0.087,10.76 -0.253,17.032 -0.169,6.268 -0.422,11.777 -0.757,16.524 -0.339,4.742 -0.674,8.81 -1.009,12.202 l 2.019,2.034 c 0.335,-0.68 0.84,-1.442 1.514,-2.288 0.671,-0.85 1.598,-1.613 2.777,-2.288 1.175,-0.679 2.272,-1.104 3.281,-1.271 1.01,-0.171 1.85,-0.254 2.525,-0.254 6.058,2.033 13.543,4.488 22.465,7.372 8.917,2.88 19.349,5.676 31.3,8.389 11.946,2.709 22.548,4.488 31.804,5.338 9.253,0.846 17.078,1.271 23.475,1.271 h 2.019 l 4.039,-4.067 v -2.034 c 0.671,-1.696 1.262,-3.646 1.767,-5.847 0.505,-2.204 0.84,-4.663 1.01,-7.372 0.165,-2.713 0.335,-5.171 0.505,-7.372 0.165,-2.205 0.418,-4.155 0.757,-5.847 v -42.708 c 0,-3.392 -0.087,-7.626 -0.253,-12.711 -0.169,-5.084 -0.504,-11.185 -1.009,-18.303 -0.505,-7.118 -1.01,-13.561 -1.515,-19.32 -0.505,-5.764 -0.927,-10.677 -1.262,-14.745 v -2.033 c 0.335,-0.679 0.757,-1.613 1.262,-2.797 0.505,-1.187 1.176,-2.712 2.02,-4.575 0.839,-1.863 1.68,-3.559 2.524,-5.085 0.84,-1.525 1.597,-2.796 2.271,-3.813 v -2.034 c 0.336,0 0.758,0.088 1.263,0.255 0.504,0.17 1.092,0.425 1.766,0.762 0.671,0.342 1.262,0.596 1.767,0.763 0.505,0.171 0.923,0.254 1.262,0.254 l 2.02,2.034 c 1.01,3.05 1.932,6.776 2.776,11.185 0.841,4.405 1.428,9.319 1.767,14.745 0.336,5.422 0.588,9.997 0.758,13.727 0.165,3.726 0.418,6.776 0.757,9.152 v 22.371 c 0,0.337 0.083,0.929 0.252,1.779 0.166,0.846 0.418,1.946 0.757,3.305 0.336,1.354 0.588,2.455 0.758,3.305 0.165,0.846 0.252,1.438 0.252,1.779 v 56.944 C 0.418,-24.15 0.166,-22.796 0,-21.1 c -0.17,1.692 -0.087,3.643 0.252,5.847 0.336,2.201 0.758,3.98 1.263,5.339 0.504,1.354 0.922,2.371 1.261,3.05 V -4.83 C 2.102,-3.475 1.175,-1.867 0,0"
               style="fill:#37342f;fill-opacity:1;fill-rule:nonzero;stroke:none"
               transform="matrix(1.3333333,0,0,-1.3333333,1149.6488,1405.9824)"
               clip-path="url(#clipPath103)"
               id="path104" />
          </g>
        </g>
      </g>
      <g
         id="g128"
         transform="matrix(0.07578162,0,0,0.07578162,-37.452895,138.88075)">
        <path
           id="path106"
           d="m 0,0 c -7.076,3.223 -12.048,4.837 -14.918,4.837 -1.036,0 -3.755,-0.55 -8.158,-1.65 -7.744,-1.604 -23.611,-4.641 -47.59,-9.117 l 1.39,34.123 c 3.66,0.564 7.523,1.175 11.64,1.845 17.063,3.084 28.064,5.608 33.006,7.572 4.263,1.12 6.397,2.662 6.397,4.626 0,2.611 -2.025,4.785 -6.065,6.533 -6.061,3.042 -11.002,4.569 -14.82,4.569 -0.896,0 -2.683,-0.54 -5.361,-1.619 -6.377,-2.265 -14.426,-4.434 -24.104,-6.508 l 2.116,51.961 c 0,2.884 0.471,6.492 1.419,10.825 0.709,2.164 1.067,4.21 1.067,6.132 0,2.889 -2.383,5.536 -7.143,7.941 -6.91,2.642 -12.623,3.968 -17.15,3.968 -4.528,0 -6.786,-2.148 -6.786,-6.44 0,-0.956 0.818,-2.385 2.455,-4.292 2.103,-3.819 3.274,-7.397 3.512,-10.732 l 0.485,-63.424 c -10.67,-2.014 -20.756,-3.593 -30.259,-4.739 3.385,5.935 6.771,12.516 10.158,19.79 1.399,2.966 2.709,5.438 3.932,7.412 1.393,1.316 2.092,2.472 2.092,3.459 0,3.835 -4.009,8.358 -12.017,13.57 -3.869,2.189 -6.91,3.289 -9.116,3.289 -2.487,0 -3.73,-1.85 -3.73,-5.551 0,-6.137 -1.015,-12.757 -3.046,-19.861 -3.247,-11.627 -6.832,-21.958 -10.758,-30.994 -4.33,-10.013 -8.661,-18.571 -12.991,-25.674 -0.813,-0.972 -1.217,-1.779 -1.217,-2.421 0,-0.689 0.689,-1.028 2.072,-1.028 1.393,0 4.273,1.809 8.64,5.433 6.459,5.268 12.219,11.529 17.285,18.776 0.759,1.075 1.518,2.186 2.278,3.328 3.694,-1.471 9.4,-2.207 17.13,-2.207 4.102,0 10.673,0.578 19.667,1.723 l 0.264,-34.65 c -0.298,-0.055 -0.589,-0.109 -0.89,-0.165 -23.568,-3.742 -44.287,-6.826 -62.157,-9.242 -4.134,-0.426 -6.195,-1.382 -6.195,-2.873 0,-1.491 2.439,-3.408 7.329,-5.752 5.998,-2.981 10.111,-4.471 12.333,-4.471 1.306,0 3.533,0.55 6.677,1.655 9.686,2.426 29.059,5.849 58.128,10.264 20.947,2.868 40.843,4.302 59.697,4.302 8.526,0 14.25,0.535 17.171,1.614 4.714,0.859 7.071,2.791 7.071,5.803 C 10.94,-6.127 7.293,-3.444 0,0 m -197.247,32.778 c 3.978,0 6.847,-0.123 8.619,-0.365 3.755,-0.242 5.636,-2.657 5.636,-7.253 0.312,-7.724 0.514,-20.279 0.606,-37.618 -2.11,-0.159 -4.771,-0.538 -7.988,-1.137 -3.781,-0.545 -6.252,-0.812 -7.412,-0.812 -5.014,0 -7.521,4.569 -7.521,13.713 0,5.657 0.305,16.749 0.915,33.221 2.558,0.166 4.942,0.251 7.145,0.251 m 14.918,-68.922 c 0,-24.287 -0.555,-39.764 -1.658,-46.425 -0.363,-2.538 -0.82,-4.547 -1.367,-6.045 -5.504,2.633 -8.257,3.953 -8.257,3.953 h -4.755 c -3.015,0 -9.034,-0.658 -18.057,-1.969 -14.524,-2.567 -30.068,-4.403 -46.624,-5.517 0.757,12.031 1.451,30.133 2.08,54.313 1.397,0.918 2.968,2.008 4.763,3.319 6.247,5.14 10.805,10.542 13.67,16.201 3.382,5.911 6.117,13.626 8.199,23.146 1.602,7.515 2.659,15.572 3.184,24.156 4.488,0.81 8.692,1.486 12.626,2.037 0.008,-15.921 0.121,-27.247 0.351,-33.939 0,-11.252 3.828,-18.545 11.489,-21.876 4.33,-2.087 9.101,-3.125 14.307,-3.125 3.784,0 7.119,0.302 10.041,0.888 0.005,-2.942 0.008,-5.965 0.008,-9.117 m -77.48,59.822 c 0.452,-0.016 0.91,-0.029 1.398,-0.029 2.13,0 6.258,0.797 12.391,2.401 0.792,0.168 1.564,0.328 2.342,0.49 -0.483,-6.684 -1.348,-12.988 -2.601,-18.907 -1.461,-9.643 -4.082,-18.263 -7.874,-25.87 -1.587,-3.313 -3.802,-6.978 -6.598,-10.969 0.36,15.021 0.699,32.125 1.015,51.334 0,0.534 -0.028,1.048 -0.073,1.55 m 29.38,36.707 c 0.259,4.369 0.906,8.486 1.953,12.346 0.777,1.542 1.17,2.699 1.17,3.47 0,1.293 -0.677,2.507 -2.003,3.645 3.164,0.418 6.573,0.892 10.262,1.431 0.346,-2.293 0.521,-5.065 0.521,-8.325 V 41.431 c -4.174,-0.932 -8.262,-1.798 -12.259,-2.594 z m 62.489,31.174 c 4.33,1.121 6.496,2.663 6.496,4.626 0,2.611 -2.026,4.786 -6.066,6.533 -6.06,3.043 -11.002,4.57 -14.819,4.57 -0.907,0 -2.72,-0.54 -5.439,-1.62 -7.708,-2.698 -17.788,-5.263 -30.245,-7.689 -17.902,-3.778 -34.332,-6.476 -49.281,-8.09 -6.345,-0.273 -9.515,-1.219 -9.515,-2.832 0,-1.789 1.761,-3.907 5.283,-6.364 3.522,-2.01 9.8,-3.012 18.834,-3.012 1.613,0 3.618,0.091 5.977,0.263 1.085,-2.188 1.746,-4.59 1.938,-7.217 1.036,-4.647 1.559,-10.717 1.559,-18.201 V 39.589 c 0,-1.033 -0.018,-2.048 -0.034,-3.065 -8.209,-1.406 -16.002,-2.494 -23.382,-3.269 -2.962,1.317 -6.436,1.99 -10.439,1.99 -3.336,0 -4.999,-1.208 -4.999,-3.618 0,-0.838 0.684,-2.164 2.051,-3.974 3.647,-5.016 5.47,-13.518 5.47,-25.504 0,-27.736 -0.554,-47.458 -1.652,-59.162 -0.984,-12.269 -2.269,-21.609 -3.854,-28.018 -0.735,-2.231 -1.103,-4.739 -1.103,-7.525 0,-5.747 1.663,-11.375 4.988,-16.895 2.44,-4.416 4.879,-6.626 7.319,-6.626 2.072,0 3.522,2.899 4.351,8.692 0.128,0.71 0.254,1.572 0.379,2.567 1.353,-0.179 2.843,-0.28 4.511,-0.28 3.574,0 8.743,0.37 15.498,1.11 l 36.953,3.331 c 4.669,0.58 9.622,0.985 14.842,1.224 2.15,-3.949 4.575,-8.958 7.281,-15.045 1.61,-3.545 3.215,-5.374 4.824,-5.518 l 0.008,-0.028 c 0.046,0 0.094,0.006 0.14,0.007 0.019,0 0.038,-0.007 0.057,-0.007 l -0.003,0.011 c 3.103,0.113 6.746,2.968 10.927,8.567 4.041,6.816 6.066,13.961 6.066,21.439 -2.378,31.056 -3.564,50.588 -3.564,58.591 0.218,33.195 0.865,51.868 1.953,56.021 1.735,4.148 2.605,6.955 2.605,8.42 0,3.947 -3.921,8.111 -11.753,12.5 -4.791,3.506 -8.054,5.264 -9.795,5.264 -2.266,0 -9.046,-1.971 -20.344,-5.91 0.035,0.895 0.07,1.778 0.107,2.697 0.497,15.286 1.124,24.939 1.875,28.964 0.497,3.218 0.751,5.227 0.751,6.034 0,0.489 -0.096,0.957 -0.243,1.414 v 0 c 17.311,3.084 28.473,5.608 33.487,7.571 m -34.176,-143.494 c -6.517,1.481 -10.862,2.226 -13.033,2.226 -0.227,0 -1.45,-0.36 -3.677,-1.074 -7.578,-2.858 -15.379,-5.181 -23.403,-6.965 -7.143,-0.303 -10.712,-1.809 -10.712,-4.523 0,-1.809 2.28,-3.47 6.838,-4.976 3.035,-0.904 6.837,-1.357 11.395,-1.357 1.839,0 4.833,0.412 8.977,1.234 7.594,1.645 12.312,2.673 14.156,3.084 2.072,0.411 4.6,0.822 7.594,1.234 7.138,1.48 10.712,3.407 10.712,5.782 0,1.48 -2.953,3.259 -8.847,5.335 m 158.761,-27.648 c -0.849,-6.938 -1.755,-13.026 -2.722,-18.287 -3.086,-0.175 -8.139,-0.814 -15.179,-1.918 -13.634,-2.606 -28.25,-4.455 -43.826,-5.564 -0.579,7.982 -1.938,19.256 -4.077,33.854 -0.247,1.731 -0.423,3.421 -0.537,5.078 5.029,0.944 14.916,2.931 29.663,5.963 15.757,3.218 25.396,4.827 28.919,4.827 6.34,0 9.51,-1.604 9.51,-4.811 0,-4.102 -0.585,-10.486 -1.751,-19.142 m 19.942,32.711 c -5.516,3.537 -8.272,5.305 -8.272,5.305 h -4.139 c -1.792,0 -4.962,-0.674 -9.51,-2.02 -10.411,-2.699 -22.2,-5.228 -35.368,-7.582 -13.141,-2.034 -24.788,-3.407 -34.984,-4.133 -1.305,0.666 -2.83,1.3 -4.574,1.902 -3.175,1.198 -4.76,1.799 -4.76,1.799 h -6.247 c -2.579,0 -3.864,-1.511 -3.864,-4.523 0,-0.401 0.72,-1.064 2.165,-1.989 3.781,-3.444 6.128,-7.222 7.029,-11.323 1.44,-3.979 2.792,-10.933 4.056,-20.864 l 3.243,-19.074 c 0.196,-3.773 1.507,-7.345 3.921,-10.728 1.605,-2.58 3.216,-3.87 4.832,-3.87 1.404,0 2.611,1.074 3.621,3.213 0.422,0.819 0.749,1.764 0.994,2.821 1.421,-0.204 3.001,-0.318 4.782,-0.318 3.346,0 8.179,0.37 14.498,1.11 l 34.57,3.331 c 7.433,0.987 15.612,1.48 24.537,1.48 2.227,0 3.346,0.74 3.346,2.221 0,1.767 -1.692,3.91 -5.021,6.421 0.014,0.033 0.035,0.064 0.048,0.096 2.937,13.765 5.667,24.317 8.189,31.663 1.259,4.584 2.937,8.028 5.041,10.326 1.471,1.83 2.206,3.207 2.206,4.127 0,2.354 -3.45,5.891 -10.339,10.609"
           style="fill:#593a08;fill-opacity:1;fill-rule:nonzero;stroke:none"
           transform="matrix(1.3333333,0,0,-1.3333333,1858.7611,1594.704)"
           clip-path="url(#clipPath107)" />
        <g
           mask="url(#mask107)"
           id="g116"
           clip-path="url(#clipPath116)">
          <g
             id="g115">
            <g
               opacity="0.901962"
               clip-path="url(#clipPath113)"
               id="g114">
              <path
                 d="m 0,0 c -0.849,-6.938 -1.755,-13.026 -2.722,-18.288 -3.086,-0.174 -8.139,-0.813 -15.179,-1.917 -13.634,-2.606 -28.25,-4.456 -43.826,-5.564 -0.579,7.982 -1.938,19.256 -4.077,33.854 -0.247,1.731 -0.423,3.421 -0.537,5.077 5.029,0.945 14.916,2.932 29.663,5.964 15.757,3.218 25.396,4.826 28.919,4.826 6.34,0 9.51,-1.603 9.51,-4.811 C 1.751,15.04 1.166,8.656 0,0 m 19.942,32.711 c -5.516,3.536 -8.272,5.305 -8.272,5.305 H 7.531 c -1.792,0 -4.962,-0.674 -9.51,-2.021 -10.411,-2.698 -22.2,-5.227 -35.368,-7.581 -13.141,-2.034 -24.788,-3.408 -34.984,-4.133 -1.305,0.665 -2.83,1.3 -4.574,1.902 -3.175,1.198 -4.76,1.799 -4.76,1.799 h -6.247 c -2.579,0 -3.864,-1.511 -3.864,-4.523 0,-0.401 0.72,-1.064 2.165,-1.989 3.781,-3.444 6.128,-7.222 7.029,-11.324 1.44,-3.978 2.792,-10.932 4.056,-20.863 l 3.243,-19.075 c 0.196,-3.772 1.507,-7.345 3.921,-10.727 1.605,-2.58 3.216,-3.87 4.832,-3.87 1.404,0 2.611,1.074 3.621,3.212 0.422,0.82 0.749,1.765 0.994,2.822 1.421,-0.204 3.001,-0.318 4.782,-0.318 3.346,0 8.179,0.37 14.498,1.11 l 34.57,3.33 c 7.433,0.987 15.612,1.481 24.537,1.481 2.227,0 3.346,0.74 3.346,2.22 0,1.768 -1.692,3.911 -5.021,6.422 0.014,0.033 0.035,0.063 0.048,0.096 2.937,13.765 5.667,24.317 8.189,31.662 1.259,4.585 2.937,8.029 5.041,10.327 1.471,1.829 2.206,3.207 2.206,4.127 0,2.354 -3.45,5.89 -10.339,10.609 m 23.413,46.872 c -7.076,3.223 -12.048,4.837 -14.918,4.837 -1.036,0 -3.755,-0.55 -8.158,-1.65 -7.744,-1.604 -23.611,-4.641 -47.59,-9.117 l 1.39,34.123 c 3.66,0.564 7.523,1.175 11.64,1.845 17.062,3.084 28.064,5.608 33.006,7.571 4.263,1.121 6.397,2.663 6.397,4.626 0,2.611 -2.025,4.786 -6.065,6.533 -6.061,3.043 -11.002,4.57 -14.82,4.57 -0.896,0 -2.683,-0.54 -5.361,-1.619 -6.377,-2.265 -14.426,-4.434 -24.104,-6.508 l 2.116,51.961 c 0,2.883 0.471,6.492 1.419,10.825 0.709,2.164 1.067,4.209 1.067,6.132 0,2.888 -2.383,5.535 -7.143,7.941 -6.91,2.642 -12.623,3.968 -17.15,3.968 -4.528,0 -6.786,-2.148 -6.786,-6.44 0,-0.956 0.818,-2.385 2.455,-4.292 2.103,-3.819 3.274,-7.397 3.512,-10.733 l 0.485,-63.423 c -10.67,-2.015 -20.756,-3.594 -30.259,-4.74 3.385,5.936 6.771,12.517 10.158,19.791 1.399,2.966 2.709,5.438 3.932,7.412 1.393,1.315 2.092,2.472 2.092,3.459 0,3.834 -4.009,8.358 -12.017,13.57 -3.869,2.189 -6.91,3.289 -9.116,3.289 -2.487,0 -3.73,-1.85 -3.73,-5.551 0,-6.137 -1.015,-12.758 -3.046,-19.861 -3.247,-11.627 -6.832,-21.958 -10.758,-30.994 -4.33,-10.013 -8.661,-18.571 -12.991,-25.675 -0.813,-0.971 -1.217,-1.778 -1.217,-2.421 0,-0.688 0.689,-1.028 2.072,-1.028 1.393,0 4.273,1.81 8.64,5.433 6.459,5.269 12.219,11.529 17.285,18.777 0.759,1.074 1.518,2.186 2.278,3.328 3.694,-1.471 9.4,-2.208 17.13,-2.208 4.102,0 10.673,0.578 19.667,1.724 l 0.264,-34.65 c -0.298,-0.055 -0.589,-0.11 -0.89,-0.165 -23.568,-3.742 -44.287,-6.826 -62.157,-9.242 -4.134,-0.426 -6.195,-1.383 -6.195,-2.873 0,-1.491 2.439,-3.408 7.329,-5.752 5.998,-2.981 10.111,-4.472 12.333,-4.472 1.306,0 3.533,0.55 6.677,1.655 9.686,2.427 29.059,5.85 58.128,10.265 20.947,2.868 40.843,4.302 59.697,4.302 8.526,0 14.25,0.535 17.171,1.614 4.714,0.859 7.071,2.791 7.071,5.803 0,1.933 -3.647,4.616 -10.94,8.06 m -197.247,32.778 c 3.978,0 6.847,-0.124 8.619,-0.365 3.755,-0.242 5.636,-2.658 5.636,-7.253 0.312,-7.724 0.514,-20.28 0.606,-37.619 -2.11,-0.158 -4.771,-0.538 -7.988,-1.137 -3.781,-0.544 -6.252,-0.812 -7.412,-0.812 -5.014,0 -7.521,4.57 -7.521,13.714 0,5.656 0.305,16.749 0.915,33.221 2.558,0.166 4.942,0.251 7.145,0.251 m 14.918,-68.923 c 0,-24.286 -0.555,-39.763 -1.658,-46.424 -0.363,-2.539 -0.82,-4.547 -1.368,-6.045 -5.503,2.633 -8.256,3.953 -8.256,3.953 h -4.755 c -3.015,0 -9.034,-0.658 -18.057,-1.969 -14.524,-2.567 -30.068,-4.404 -46.624,-5.517 0.757,12.031 1.451,30.132 2.08,54.313 1.397,0.918 2.968,2.008 4.763,3.319 6.247,5.14 10.805,10.542 13.67,16.201 3.382,5.911 6.117,13.626 8.199,23.145 1.602,7.516 2.659,15.573 3.184,24.157 4.488,0.809 8.692,1.486 12.626,2.036 0.008,-15.92 0.121,-27.246 0.351,-33.939 0,-11.251 3.828,-18.545 11.489,-21.876 4.33,-2.086 9.101,-3.125 14.307,-3.125 3.783,0 7.119,0.303 10.041,0.889 0.005,-2.942 0.008,-5.965 0.008,-9.118 m -77.48,59.823 c 0.452,-0.016 0.91,-0.029 1.398,-0.029 2.129,0 6.258,0.797 12.391,2.4 0.792,0.169 1.564,0.328 2.342,0.491 -0.483,-6.684 -1.348,-12.989 -2.601,-18.907 -1.461,-9.643 -4.082,-18.263 -7.874,-25.87 -1.587,-3.313 -3.802,-6.978 -6.598,-10.969 0.36,15.021 0.699,32.125 1.015,51.334 0,0.534 -0.028,1.048 -0.073,1.55 m 29.38,36.707 c 0.259,4.369 0.906,8.486 1.953,12.346 0.777,1.542 1.17,2.699 1.17,3.47 0,1.293 -0.677,2.507 -2.003,3.645 3.164,0.417 6.573,0.892 10.262,1.43 0.346,-2.293 0.521,-5.064 0.521,-8.324 v -31.521 c -4.174,-0.932 -8.262,-1.798 -12.259,-2.595 z m 62.489,31.174 c 4.33,1.12 6.496,2.662 6.496,4.626 0,2.611 -2.026,4.785 -6.066,6.533 -6.06,3.043 -11.002,4.569 -14.819,4.569 -0.907,0 -2.72,-0.539 -5.439,-1.619 -7.708,-2.698 -17.788,-5.263 -30.245,-7.689 -17.902,-3.778 -34.332,-6.477 -49.281,-8.091 -6.345,-0.272 -9.515,-1.218 -9.515,-2.832 0,-1.788 1.761,-3.906 5.283,-6.363 3.522,-2.01 9.8,-3.012 18.834,-3.012 1.613,0 3.618,0.09 5.977,0.262 1.085,-2.187 1.746,-4.589 1.938,-7.217 1.036,-4.646 1.559,-10.716 1.559,-18.2 v -12.938 c 0,-1.033 -0.018,-2.048 -0.034,-3.064 -8.209,-1.406 -16.002,-2.495 -23.382,-3.27 -2.962,1.318 -6.436,1.991 -10.439,1.991 -3.336,0 -4.999,-1.208 -4.999,-3.619 0,-0.837 0.684,-2.164 2.051,-3.973 3.647,-5.017 5.47,-13.518 5.47,-25.505 0,-27.735 -0.554,-47.457 -1.652,-59.161 -0.984,-12.269 -2.269,-21.609 -3.854,-28.018 -0.735,-2.231 -1.103,-4.74 -1.103,-7.525 0,-5.747 1.663,-11.375 4.988,-16.896 2.44,-4.415 4.879,-6.625 7.319,-6.625 2.072,0 3.522,2.899 4.351,8.692 0.128,0.71 0.254,1.572 0.379,2.566 1.353,-0.178 2.843,-0.279 4.511,-0.279 3.574,0 8.743,0.37 15.498,1.11 l 36.953,3.331 c 4.669,0.58 9.622,0.985 14.842,1.224 2.15,-3.95 4.575,-8.958 7.281,-15.046 1.61,-3.545 3.215,-5.373 4.824,-5.517 l 0.008,-0.029 c 0.046,0 0.094,0.007 0.14,0.008 0.019,0 0.038,-0.008 0.057,-0.008 l -0.003,0.011 c 3.103,0.114 6.746,2.968 10.927,8.568 4.041,6.816 6.066,13.96 6.066,21.439 -2.378,31.056 -3.564,50.588 -3.564,58.591 0.218,33.194 0.865,51.868 1.953,56.021 1.735,4.148 2.605,6.955 2.605,8.419 0,3.948 -3.921,8.111 -11.753,12.501 -4.791,3.505 -8.054,5.263 -9.795,5.263 -2.266,0 -9.046,-1.97 -20.344,-5.91 0.035,0.896 0.07,1.778 0.107,2.698 0.497,15.286 1.124,24.939 1.875,28.964 0.497,3.217 0.751,5.227 0.751,6.034 0,0.489 -0.096,0.957 -0.244,1.414 h 0.001 c 17.311,3.084 28.473,5.607 33.487,7.571 M -158.761,27.648 c -6.517,1.48 -10.862,2.226 -13.033,2.226 -0.227,0 -1.45,-0.36 -3.677,-1.075 -7.578,-2.857 -15.379,-5.181 -23.403,-6.964 -7.143,-0.303 -10.712,-1.81 -10.712,-4.523 0,-1.81 2.28,-3.47 6.838,-4.976 3.035,-0.905 6.837,-1.357 11.395,-1.357 1.839,0 4.833,0.411 8.977,1.234 7.594,1.644 12.312,2.672 14.156,3.084 2.072,0.411 4.6,0.822 7.594,1.233 7.138,1.481 10.712,3.408 10.712,5.783 0,1.48 -2.953,3.259 -8.847,5.335"
                 style="fill:#39270b;fill-opacity:1;fill-rule:nonzero;stroke:none"
                 transform="matrix(1.3333333,0,0,-1.3333333,1800.9544,1700.8144)"
                 clip-path="url(#clipPath112)"
                 id="path114" />
            </g>
          </g>
        </g>
      </g>
    </g>
  </g>
</svg>
